
<svg width="501px" height="232px" viewBox="12 3667 501 232" version="1.1" xmlns="http://www.w3.org/2000/svg" xmlns:xlink="http://www.w3.org/1999/xlink">
    <!-- Generator: Sketch 39 (31667) - http://www.bohemiancoding.com/sketch -->
    <desc>Created with Sketch.</desc>
    <defs></defs>
    <g id="Group-8" stroke="none" stroke-width="1" fill="none" fill-rule="evenodd" transform="translate(17.000000, 3672.000000)">
        <path d="M217.83611,193.41815 C217.83611,204.142516 209.142025,212.836801 198.417906,212.836801 C187.693786,212.836801 179.000502,204.142516 179.000502,193.41815 C179.000502,182.693784 187.693786,173.999498 198.417906,173.999498 C209.142025,173.999498 217.83611,182.693784 217.83611,193.41815 L217.83611,193.41815 Z" id="Stroke-1" stroke="#FFFFFF" stroke-width="9.6" transform="translate(198.418306, 193.418150) rotate(-450.000000) translate(-198.418306, -193.418150) "></path>
        <polygon id="Stroke-3" stroke="#FFFFFF" stroke-width="7.8704" transform="translate(217.928042, 125.074902) rotate(-450.000000) translate(-217.928042, -125.074902) " points="203.853486 118.102903 232.002598 111.146514 223.952104 139.003289"></polygon>
        <path d="M116.744982,100.289739 C127.310605,102.125297 134.388507,112.17884 132.552191,122.745506 C130.716675,133.311373 120.663364,140.388638 110.097741,138.55308 C99.5313175,136.717522 92.4542153,126.663979 94.2897311,116.097312 C96.1252469,105.531446 106.179359,98.4541807 116.744982,100.289739 L116.744982,100.289739 Z" id="Stroke-5" stroke="#FFFFFF" stroke-width="9.6" transform="translate(113.421064, 119.421409) rotate(-450.000000) translate(-113.421064, -119.421409) "></path>
        <path d="M33.7449817,181.289739 C44.3106046,183.125297 51.3885073,193.17884 49.552191,203.745506 C47.7166752,214.311373 37.6633637,221.388638 27.0977408,219.55308 C16.5313175,217.717522 9.4542153,207.663979 11.2897311,197.097312 C13.1252469,186.531446 23.1793589,179.454181 33.7449817,181.289739 L33.7449817,181.289739 Z" id="Stroke-7" stroke="#FFFFFF" stroke-width="9.6" transform="translate(30.421064, 200.421409) rotate(-450.000000) translate(-30.421064, -200.421409) "></path>
        <path d="M103.744982,30.2897388 C114.310605,32.1252968 121.388507,42.1788398 119.552191,52.7455064 C117.716675,63.3113726 107.663364,70.3886377 97.0977408,68.5530797 C86.5313175,66.7175216 79.4542153,56.6639786 81.2897311,46.097312 C83.1252469,35.5314458 93.1793589,28.4541807 103.744982,30.2897388 L103.744982,30.2897388 Z" id="Stroke-9" stroke="#FFFFFF" stroke-width="9.6" transform="translate(100.421064, 49.421409) rotate(-450.000000) translate(-100.421064, -49.421409) "></path>
        <path d="M22.7449817,0.28973875 C33.3106046,2.12529683 40.3885073,12.1788398 38.552191,22.7455064 C36.7166752,33.3113726 26.6633637,40.3886377 16.0977408,38.5530797 C5.53131749,36.7175216 -1.5457847,26.6639786 0.289731114,16.097312 C2.12524693,5.53144582 12.1793589,-1.54581933 22.7449817,0.28973875 L22.7449817,0.28973875 Z" id="Stroke-11" stroke="#FFFFFF" stroke-width="9.6" transform="translate(19.421064, 19.421409) rotate(-450.000000) translate(-19.421064, -19.421409) "></path>
        <path d="M300.744982,171.289739 C311.310605,173.125297 318.388507,183.17884 316.552191,193.745506 C314.716675,204.311373 304.663364,211.388638 294.097741,209.55308 C283.531317,207.717522 276.454215,197.663979 278.289731,187.097312 C280.125247,176.531446 290.179359,169.454181 300.744982,171.289739 L300.744982,171.289739 Z" id="Stroke-13" stroke="#FFFFFF" stroke-width="9.6" transform="translate(297.421064, 190.421409) rotate(-450.000000) translate(-297.421064, -190.421409) "></path>
        <polygon id="Stroke-15" stroke="#FFFFFF" stroke-width="7.8704" transform="translate(30.154754, 109.439523) rotate(-450.000000) translate(-30.154754, -109.439523) " points="15.7155765 122.594623 27.9037857 96.2844235 44.5939317 119.994583"></polygon>
        <polygon id="Stroke-17" stroke="#FFFFFF" stroke-width="7.8704" transform="translate(473.461579, 194.035870) rotate(-450.000000) translate(-473.461579, -194.035870) " points="460.426054 179.573946 486.497103 192.264352 462.472098 208.497794"></polygon>
        <polygon id="Stroke-19" stroke="#FFFFFF" stroke-width="7.8704" transform="translate(183.244241, 36.685865) rotate(-450.000000) translate(-183.244241, -36.685865) " points="169.558722 22.441278 196.929761 32.0097149 174.958004 50.9304522"></polygon>
        <polygon id="Stroke-21" stroke="#FFFFFF" stroke-width="7.8704" transform="translate(132.244241, 207.685865) rotate(-450.000000) translate(-132.244241, -207.685865) " points="118.558722 193.441278 145.929761 203.009715 123.958004 221.930452"></polygon>
    </g>
</svg>
