
<svg width="342px" height="327px" viewBox="1088 2978 342 327" version="1.1" xmlns="http://www.w3.org/2000/svg" xmlns:xlink="http://www.w3.org/1999/xlink">
    <!-- Generator: Sketch 39 (31667) - http://www.bohemiancoding.com/sketch -->
    <desc>Created with Sketch.</desc>
    <defs></defs>
    <g id="Group-2" stroke="none" stroke-width="1" fill="none" fill-rule="evenodd" transform="translate(1096.000000, 2983.000000)">
        <path d="M320.710721,118.333458 C320.710721,129.057824 312.016636,137.75211 301.292517,137.75211 C290.568397,137.75211 281.875113,129.057824 281.875113,118.333458 C281.875113,107.609092 290.568397,98.9148068 301.292517,98.9148068 C312.016636,98.9148068 320.710721,107.609092 320.710721,118.333458 L320.710721,118.333458 Z" id="Stroke-1" stroke="#FFFFFF" stroke-width="9.6" transform="translate(301.292917, 118.333458) rotate(-180.000000) translate(-301.292917, -118.333458) "></path>
        <polygon id="Stroke-3" stroke="#FFFFFF" stroke-width="7.8704" transform="translate(232.512305, 98.757428) rotate(-180.000000) translate(-232.512305, -98.757428) " points="218.437749 91.7854288 246.586861 84.8290399 238.536367 112.685815"></polygon>
        <path d="M230.271858,184.647937 C240.837481,186.483495 247.915384,196.537038 246.079067,207.103705 C244.243551,217.669571 234.19024,224.746836 223.624617,222.911278 C213.058194,221.07572 205.981092,211.022177 207.816607,200.45551 C209.652123,189.889644 219.706235,182.812379 230.271858,184.647937 L230.271858,184.647937 Z" id="Stroke-5" stroke="#FFFFFF" stroke-width="9.6" transform="translate(226.947940, 203.779608) rotate(-180.000000) translate(-226.947940, -203.779608) "></path>
        <path d="M311.543103,267.61076 C322.108726,269.446318 329.186629,279.499861 327.350312,290.066527 C325.514796,300.632393 315.461485,307.709659 304.895862,305.874101 C294.329439,304.038542 287.252337,293.984999 289.087852,283.418333 C290.923368,272.852467 300.97748,265.775202 311.543103,267.61076 L311.543103,267.61076 Z" id="Stroke-7" stroke="#FFFFFF" stroke-width="9.6" transform="translate(308.219185, 286.742430) rotate(-180.000000) translate(-308.219185, -286.742430) "></path>
        <path d="M160.370725,197.587621 C170.936348,199.423179 178.01425,209.476722 176.177934,220.043389 C174.342418,230.609255 164.289107,237.68652 153.723484,235.850962 C143.157061,234.015404 136.079958,223.961861 137.915474,213.395194 C139.75099,202.829328 149.805102,195.752063 160.370725,197.587621 L160.370725,197.587621 Z" id="Stroke-9" stroke="#FFFFFF" stroke-width="9.6" transform="translate(157.046807, 216.719291) rotate(-180.000000) translate(-157.046807, -216.719291) "></path>
        <path d="M130.17741,278.446796 C140.743033,280.282354 147.820936,290.335897 145.98462,300.902564 C144.149104,311.46843 134.095792,318.545695 123.530169,316.710137 C112.963746,314.874579 105.886644,304.821036 107.72216,294.254369 C109.557675,283.688503 119.611787,276.611238 130.17741,278.446796 L130.17741,278.446796 Z" id="Stroke-11" stroke="#FFFFFF" stroke-width="9.6" transform="translate(126.853492, 297.578467) rotate(-180.000000) translate(-126.853492, -297.578467) "></path>
        <path d="M301.643645,0.342055808 C312.209268,2.17761389 319.287171,12.2311568 317.450854,22.7978235 C315.615339,33.3636896 305.562027,40.4409548 294.996404,38.6053967 C284.429981,36.7698386 277.352879,26.7162957 279.188394,16.149629 C281.02391,5.58376288 291.078022,-1.49350227 301.643645,0.342055808 L301.643645,0.342055808 Z" id="Stroke-13" stroke="#FFFFFF" stroke-width="9.6" transform="translate(298.319727, 19.473726) rotate(-180.000000) translate(-298.319727, -19.473726) "></path>
        <polygon id="Stroke-15" stroke="#FFFFFF" stroke-width="7.8704" transform="translate(217.536401, 286.742350) rotate(-180.000000) translate(-217.536401, -286.742350) " points="203.097223 299.89745 215.285433 273.58725 231.975579 297.297409"></polygon>
        <polygon id="Stroke-17" stroke="#FFFFFF" stroke-width="7.8704" transform="translate(13.625003, 162.411428) rotate(-180.000000) translate(-13.625003, -162.411428) " points="0.589478345 147.949504 26.660527 160.63991 2.63552214 176.873352"></polygon>
        <polygon id="Stroke-19" stroke="#FFFFFF" stroke-width="7.8704" transform="translate(144.151870, 134.136549) rotate(-180.000000) translate(-144.151870, -134.136549) " points="130.466351 119.891962 157.83739 129.460398 135.865633 148.381136"></polygon>
        <polygon id="Stroke-21" stroke="#FFFFFF" stroke-width="7.8704" transform="translate(314.978836, 184.648818) rotate(-180.000000) translate(-314.978836, -184.648818) " points="301.293317 170.404231 328.664356 179.972667 306.692599 198.893405"></polygon>
    </g>
</svg>
