
<svg width="342px" height="327px" viewBox="442 1334 342 327" version="1.1" xmlns="http://www.w3.org/2000/svg" xmlns:xlink="http://www.w3.org/1999/xlink">
    <!-- Generator: Sketch 39 (31667) - http://www.bohemiancoding.com/sketch -->
    <desc>Created with Sketch.</desc>
    <defs></defs>
    <g id="Group-2" opacity="0.291336287" stroke="none" stroke-width="1" fill="none" fill-rule="evenodd" transform="translate(614.500000, 1497.500000) rotate(-180.000000) translate(-614.500000, -1497.500000) translate(450.000000, 1339.000000)">
        <path d="M47.1248873,198.666542 C47.1248873,209.390908 38.4308022,218.085193 27.706683,218.085193 C16.9825637,218.085193 8.28927908,209.390908 8.28927908,198.666542 C8.28927908,187.942176 16.9825637,179.24789 27.706683,179.24789 C38.4308022,179.24789 47.1248873,187.942176 47.1248873,198.666542 L47.1248873,198.666542 Z" id="Stroke-1" stroke="#B8B8B8" stroke-width="9.6"></path>
        <polygon id="Stroke-3" stroke="#B8B8B8" stroke-width="7.8704" points="82.4131392 211.270574 110.562251 204.314185 102.511757 232.17096"></polygon>
        <path d="M105.375978,94.088722 C115.941601,95.9242801 123.019504,105.977823 121.183188,116.54449 C119.347672,127.110356 109.29436,134.187621 98.7287375,132.352063 C88.1623141,130.516505 81.0852119,120.462962 82.9207277,109.896295 C84.7562436,99.330429 94.8103555,92.2531639 105.375978,94.088722 L105.375978,94.088722 Z" id="Stroke-5" stroke="#B8B8B8" stroke-width="9.6"></path>
        <path d="M24.1047333,11.1258995 C34.6703562,12.9614576 41.7482589,23.0150005 39.9119426,33.5816672 C38.0764268,44.1475333 28.0231153,51.2247985 17.4574925,49.3892404 C6.8910691,47.5536823 -0.18603309,37.5001394 1.64948273,26.9334727 C3.48499854,16.3676066 13.5391105,9.29034141 24.1047333,11.1258995 L24.1047333,11.1258995 Z" id="Stroke-7" stroke="#B8B8B8" stroke-width="9.6"></path>
        <path d="M175.277111,81.1490381 C185.842734,82.9845962 192.920637,93.0381391 191.084321,103.604806 C189.248805,114.170672 179.195493,121.247937 168.629871,119.412379 C158.063447,117.576821 150.986345,107.523278 152.821861,96.9566114 C154.657377,86.3907452 164.711489,79.3134801 175.277111,81.1490381 L175.277111,81.1490381 Z" id="Stroke-9" stroke="#B8B8B8" stroke-width="9.6"></path>
        <path d="M205.470426,0.289862879 C216.036049,2.12542096 223.113952,12.1789639 221.277635,22.7456306 C219.442119,33.3114967 209.388808,40.3887619 198.823185,38.5532038 C188.256762,36.7176457 181.17966,26.6641028 183.015175,16.0974361 C184.850691,5.53156995 194.904803,-1.5456952 205.470426,0.289862879 L205.470426,0.289862879 Z" id="Stroke-11" stroke="#B8B8B8" stroke-width="9.6"></path>
        <path d="M34.0041912,278.394603 C44.5698141,280.230161 51.6477168,290.283704 49.8114005,300.850371 C47.9758847,311.416237 37.9225732,318.493502 27.3569504,316.657944 C16.790527,314.822386 9.71342482,304.768843 11.5489406,294.202177 C13.3844564,283.63631 23.4385684,276.559045 34.0041912,278.394603 L34.0041912,278.394603 Z" id="Stroke-13" stroke="#B8B8B8" stroke-width="9.6"></path>
        <polygon id="Stroke-15" stroke="#B8B8B8" stroke-width="7.8704" points="97.0244214 43.4127497 109.212631 17.1025503 125.902777 40.8127093"></polygon>
        <polygon id="Stroke-17" stroke="#B8B8B8" stroke-width="7.8704" points="302.339473 140.126648 328.410522 152.817055 304.385517 169.050496"></polygon>
        <polygon id="Stroke-19" stroke="#B8B8B8" stroke-width="7.8704" points="171.16261 168.618864 198.533649 178.187301 176.561892 197.108038"></polygon>
        <polygon id="Stroke-21" stroke="#B8B8B8" stroke-width="7.8704" points="0.335644039 118.106595 27.706683 127.675032 5.73492628 146.595769"></polygon>
    </g>
</svg>
