
<svg width="26px" height="24px" viewBox="733 833 26 24" version="1.1" xmlns="http://www.w3.org/2000/svg" xmlns:xlink="http://www.w3.org/1999/xlink">
    <!-- Generator: Sketch 39 (31667) - http://www.bohemiancoding.com/sketch -->
    <desc>Created with Sketch.</desc>
    <defs></defs>
    <path d="M748.499037,842.092593 C748.763037,841.952593 749.042037,841.828593 749.338037,841.719593 C749.617037,841.611593 749.904037,841.525593 750.199037,841.463593 C750.495037,841.385593 750.797037,841.331593 751.108037,841.300593 C751.419037,841.253593 751.737037,841.238593 752.063037,841.253593 L752.599037,841.253593 L753.624037,841.393593 C753.795037,841.409593 753.965037,841.440593 754.136037,841.486593 C754.292037,841.533593 754.447037,841.579593 754.602037,841.626593 C754.742037,841.673593 754.889037,841.735593 755.045037,841.812593 L755.091037,841.812593 C756.023037,842.232593 756.730037,842.744593 757.211037,843.350593 L757.281037,843.350593 C757.405037,843.505593 757.522037,843.668593 757.630037,843.839593 C757.724037,844.010593 757.809037,844.189593 757.887037,844.375593 C757.964037,844.546593 758.042037,844.724593 758.120037,844.911593 C758.151037,844.988593 758.182037,845.074593 758.213037,845.167593 C758.228037,845.276593 758.252037,845.384593 758.283037,845.493593 L758.283037,845.540593 C758.329037,845.710593 758.368037,845.912593 758.399037,846.145593 C758.430037,846.363593 758.461037,846.604593 758.492037,846.867593 C758.508037,847.116593 758.523037,847.395593 758.539037,847.706593 C758.554037,848.001593 758.562037,848.319593 758.562037,848.661593 L758.562037,856.908593 L758.539037,856.931593 L752.669037,856.931593 L752.669037,849.733593 C752.653037,848.009593 752.560037,846.914593 752.389037,846.448593 C752.234037,846.029593 752.001037,845.703593 751.690037,845.470593 C751.519037,845.346593 751.333037,845.260593 751.131037,845.214593 C751.038037,845.198593 750.953037,845.182593 750.875037,845.167593 C750.751037,845.151593 750.626037,845.144593 750.502037,845.144593 C750.363037,845.144593 750.238037,845.151593 750.130037,845.167593 C750.036037,845.182593 749.943037,845.198593 749.850037,845.214593 C749.633037,845.245593 749.423037,845.307593 749.221037,845.400593 C749.019037,845.477593 748.840037,845.578593 748.685037,845.703593 C748.530037,845.796593 748.390037,845.912593 748.266037,846.052593 C748.142037,846.192593 748.033037,846.339593 747.940037,846.495593 C747.847037,846.650593 747.769037,846.829593 747.707037,847.031593 L747.660037,847.054593 L747.567037,847.450593 L747.334037,849.873593 L747.334037,856.908593 L747.311037,856.931593 L741.440037,856.931593 L741.440037,841.300593 L747.008037,841.300593 L747.008037,843.094593 C747.241037,842.892593 747.482037,842.706593 747.730037,842.535593 C747.979037,842.364593 748.235037,842.216593 748.499037,842.092593 L748.499037,842.092593 Z M739.367037,841.300593 L739.367037,856.908593 L739.344037,856.931593 L733.474037,856.931593 L733.474037,841.300593 L739.367037,841.300593 Z M737.434037,833.240593 C737.620037,833.318593 737.807037,833.411593 737.993037,833.520593 C738.164037,833.644593 738.327037,833.783593 738.482037,833.939593 C738.637037,834.094593 738.777037,834.257593 738.901037,834.428593 C739.010037,834.583593 739.103037,834.746593 739.181037,834.917593 C739.227037,835.041593 739.266037,835.173593 739.298037,835.313593 C739.328037,835.453593 739.360037,835.601593 739.391037,835.756593 C739.406037,835.911593 739.414037,836.067593 739.414037,836.222593 C739.414037,836.362593 739.406037,836.501593 739.391037,836.641593 C739.360037,836.781593 739.328037,836.921593 739.298037,837.060593 C739.266037,837.185593 739.227037,837.309593 739.181037,837.433593 C739.119037,837.557593 739.057037,837.682593 738.995037,837.806593 C738.917037,837.930593 738.839037,838.047593 738.762037,838.155593 C738.669037,838.264593 738.575037,838.373593 738.482037,838.481593 C738.373037,838.575593 738.265037,838.668593 738.156037,838.761593 C738.047037,838.854593 737.931037,838.939593 737.807037,839.017593 C737.682037,839.079593 737.558037,839.134593 737.434037,839.180593 C737.310037,839.227593 737.185037,839.273593 737.061037,839.320593 C736.782037,839.382593 736.510037,839.413593 736.246037,839.413593 L736.223037,839.413593 C736.067037,839.413593 735.920037,839.405593 735.780037,839.390593 C735.625037,839.374593 735.477037,839.351593 735.337037,839.320593 C735.198037,839.289593 735.058037,839.242593 734.918037,839.180593 C734.545037,839.040593 734.219037,838.808593 733.940037,838.481593 C733.707037,838.264593 733.528037,838.039593 733.404037,837.806593 C733.326037,837.682593 733.264037,837.557593 733.217037,837.433593 C733.171037,837.309593 733.132037,837.185593 733.101037,837.060593 C733.054037,836.921593 733.031037,836.781593 733.031037,836.641593 C733.000037,836.501593 732.992037,836.362593 733.008037,836.222593 C732.992037,835.989593 733.008037,835.771593 733.054037,835.569593 C733.086037,835.352593 733.140037,835.150593 733.217037,834.964593 C733.295037,834.778593 733.396037,834.599593 733.520037,834.428593 C733.629037,834.257593 733.769037,834.094593 733.940037,833.939593 C734.142037,833.722593 734.359037,833.551593 734.592037,833.426593 C734.840037,833.287593 735.104037,833.178593 735.384037,833.100593 C735.508037,833.069593 735.648037,833.046593 735.803037,833.030593 C735.943037,832.999593 736.083037,832.992593 736.223037,833.007593 C736.440037,832.992593 736.650037,833.007593 736.852037,833.054593 C737.053037,833.085593 737.247037,833.147593 737.434037,833.240593 L737.434037,833.240593 Z" id="Fill-1" stroke="none" fill="#133C72" fill-rule="evenodd"></path>
</svg>
