
<svg width="26px" height="24px" viewBox="22 20 26 24" version="1.1" xmlns="http://www.w3.org/2000/svg" xmlns:xlink="http://www.w3.org/1999/xlink">
    <!-- Generator: Sketch 3.8.3 (29802) - http://www.bohemiancoding.com/sketch -->
    <desc>Created with Sketch.</desc>
    <defs></defs>
    <path d="M37.4990374,29.092593 C37.7630374,28.952593 38.0420374,28.828593 38.3380374,28.719593 C38.6170374,28.611593 38.9040374,28.525593 39.1990374,28.463593 C39.4950374,28.385593 39.7970374,28.331593 40.1080374,28.300593 C40.4190374,28.253593 40.7370374,28.238593 41.0630374,28.253593 L41.5990374,28.253593 L42.6240374,28.393593 C42.7950374,28.409593 42.9650374,28.440593 43.1360374,28.486593 C43.2920374,28.533593 43.4470374,28.579593 43.6020374,28.626593 C43.7420374,28.673593 43.8890374,28.735593 44.0450374,28.812593 L44.0910374,28.812593 C45.0230374,29.232593 45.7300374,29.744593 46.2110374,30.350593 L46.2810374,30.350593 C46.4050374,30.505593 46.5220374,30.668593 46.6300374,30.839593 C46.7240374,31.010593 46.8090374,31.189593 46.8870374,31.375593 C46.9640374,31.546593 47.0420374,31.724593 47.1200374,31.911593 C47.1510374,31.988593 47.1820374,32.074593 47.2130374,32.167593 C47.2280374,32.276593 47.2520374,32.384593 47.2830374,32.493593 L47.2830374,32.540593 C47.3290374,32.710593 47.3680374,32.912593 47.3990374,33.145593 C47.4300374,33.363593 47.4610374,33.604593 47.4920374,33.867593 C47.5080374,34.116593 47.5230374,34.395593 47.5390374,34.706593 C47.5540374,35.001593 47.5620374,35.319593 47.5620374,35.661593 L47.5620374,43.908593 L47.5390374,43.931593 L41.6690374,43.931593 L41.6690374,36.733593 C41.6530374,35.009593 41.5600374,33.914593 41.3890374,33.448593 C41.2340374,33.029593 41.0010374,32.703593 40.6900374,32.470593 C40.5190374,32.346593 40.3330374,32.260593 40.1310374,32.214593 C40.0380374,32.198593 39.9530374,32.182593 39.8750374,32.167593 C39.7510374,32.151593 39.6260374,32.144593 39.5020374,32.144593 C39.3630374,32.144593 39.2380374,32.151593 39.1300374,32.167593 C39.0360374,32.182593 38.9430374,32.198593 38.8500374,32.214593 C38.6330374,32.245593 38.4230374,32.307593 38.2210374,32.400593 C38.0190374,32.477593 37.8400374,32.578593 37.6850374,32.703593 C37.5300374,32.796593 37.3900374,32.912593 37.2660374,33.052593 C37.1420374,33.192593 37.0330374,33.339593 36.9400374,33.495593 C36.8470374,33.650593 36.7690374,33.829593 36.7070374,34.031593 L36.6600374,34.054593 L36.5670374,34.450593 L36.3340374,36.873593 L36.3340374,43.908593 L36.3110374,43.931593 L30.4400374,43.931593 L30.4400374,28.300593 L36.0080374,28.300593 L36.0080374,30.094593 C36.2410374,29.892593 36.4820374,29.706593 36.7300374,29.535593 C36.9790374,29.364593 37.2350374,29.216593 37.4990374,29.092593 L37.4990374,29.092593 Z M28.3670374,28.300593 L28.3670374,43.908593 L28.3440374,43.931593 L22.4740374,43.931593 L22.4740374,28.300593 L28.3670374,28.300593 Z M26.4340374,20.240593 C26.6200374,20.318593 26.8070374,20.411593 26.9930374,20.520593 C27.1640374,20.644593 27.3270374,20.783593 27.4820374,20.939593 C27.6370374,21.094593 27.7770374,21.257593 27.9010374,21.428593 C28.0100374,21.583593 28.1030374,21.746593 28.1810374,21.917593 C28.2270374,22.041593 28.2660374,22.173593 28.2980374,22.313593 C28.3280374,22.453593 28.3600374,22.601593 28.3910374,22.756593 C28.4060374,22.911593 28.4140374,23.067593 28.4140374,23.222593 C28.4140374,23.362593 28.4060374,23.501593 28.3910374,23.641593 C28.3600374,23.781593 28.3280374,23.921593 28.2980374,24.060593 C28.2660374,24.185593 28.2270374,24.309593 28.1810374,24.433593 C28.1190374,24.557593 28.0570374,24.682593 27.9950374,24.806593 C27.9170374,24.930593 27.8390374,25.047593 27.7620374,25.155593 C27.6690374,25.264593 27.5750374,25.373593 27.4820374,25.481593 C27.3730374,25.575593 27.2650374,25.668593 27.1560374,25.761593 C27.0470374,25.854593 26.9310374,25.939593 26.8070374,26.017593 C26.6820374,26.079593 26.5580374,26.134593 26.4340374,26.180593 C26.3100374,26.227593 26.1850374,26.273593 26.0610374,26.320593 C25.7820374,26.382593 25.5100374,26.413593 25.2460374,26.413593 L25.2230374,26.413593 C25.0670374,26.413593 24.9200374,26.405593 24.7800374,26.390593 C24.6250374,26.374593 24.4770374,26.351593 24.3370374,26.320593 C24.1980374,26.289593 24.0580374,26.242593 23.9180374,26.180593 C23.5450374,26.040593 23.2190374,25.808593 22.9400374,25.481593 C22.7070374,25.264593 22.5280374,25.039593 22.4040374,24.806593 C22.3260374,24.682593 22.2640374,24.557593 22.2170374,24.433593 C22.1710374,24.309593 22.1320374,24.185593 22.1010374,24.060593 C22.0540374,23.921593 22.0310374,23.781593 22.0310374,23.641593 C22.0000374,23.501593 21.9920374,23.362593 22.0080374,23.222593 C21.9920374,22.989593 22.0080374,22.771593 22.0540374,22.569593 C22.0860374,22.352593 22.1400374,22.150593 22.2170374,21.964593 C22.2950374,21.778593 22.3960374,21.599593 22.5200374,21.428593 C22.6290374,21.257593 22.7690374,21.094593 22.9400374,20.939593 C23.1420374,20.722593 23.3590374,20.551593 23.5920374,20.426593 C23.8400374,20.287593 24.1040374,20.178593 24.3840374,20.100593 C24.5080374,20.069593 24.6480374,20.046593 24.8030374,20.030593 C24.9430374,19.999593 25.0830374,19.992593 25.2230374,20.007593 C25.4400374,19.992593 25.6500374,20.007593 25.8520374,20.054593 C26.0530374,20.085593 26.2470374,20.147593 26.4340374,20.240593 L26.4340374,20.240593 Z" id="Fill-1" stroke="none" fill="#FFFFFF" fill-rule="evenodd"></path>
</svg>
