
<svg width="27px" height="21px" viewBox="667 838 27 21" version="1.1" xmlns="http://www.w3.org/2000/svg" xmlns:xlink="http://www.w3.org/1999/xlink">
    <!-- Generator: Sketch 39 (31667) - http://www.bohemiancoding.com/sketch -->
    <desc>Created with Sketch.</desc>
    <defs></defs>
    <path d="M685.350667,847.919875 L691.312,842.051688 L691.312,853.7605 L685.350667,847.919875 Z M677.009333,849.567063 L679.525333,852.04375 C679.677333,852.193375 679.949333,852.371875 680.413333,852.371875 C680.774667,852.371875 681.12,852.194687 681.232,852.008312 L683.712,849.567063 L690.021333,855.777812 L670.692,855.784375 L677.009333,849.567063 Z M675.336,847.919875 L669.376,853.7605 L669.376,842.051688 L675.336,847.919875 Z M683.206667,846.7045 L680.34,849.553937 L670.978667,840.338875 L689.704,840.338875 L683.206667,846.7045 Z M691.109333,838 L669.577333,838 C668.156,838 667,839.137938 667,840.537063 L667,855.578313 C667,856.977437 668.156,858.115375 669.577333,858.115375 L691.109333,858.115375 C692.530667,858.115375 693.686667,856.977437 693.686667,855.578313 L693.686667,840.537063 C693.686667,839.137938 692.530667,838 691.109333,838 L691.109333,838 Z" id="Fill-1" stroke="none" fill="#133C72" fill-rule="evenodd"></path>
</svg>
