
<svg width="20px" height="15px" viewBox="931 2126 20 15" version="1.1" xmlns="http://www.w3.org/2000/svg" xmlns:xlink="http://www.w3.org/1999/xlink">
    <!-- Generator: Sketch 3.8.3 (29802) - http://www.bohemiancoding.com/sketch -->
    <desc>Created with Sketch.</desc>
    <defs></defs>
    <path d="M944.065326,2133.56976 L948.309682,2129.39172 L948.309682,2137.72817 L944.065326,2133.56976 Z M938.126455,2134.74253 L939.9178,2136.50588 C940.026021,2136.61241 940.219679,2136.7395 940.550039,2136.7395 C940.807301,2136.7395 941.053172,2136.61335 941.132914,2136.48065 L942.898627,2134.74253 L947.390752,2139.16446 L933.628634,2139.16913 L938.126455,2134.74253 Z M936.935074,2133.56976 L932.691667,2137.72817 L932.691667,2129.39172 L936.935074,2133.56976 Z M942.538839,2132.70444 L940.497827,2134.73318 L933.832735,2128.17223 L947.164817,2128.17223 L942.538839,2132.70444 Z M948.165388,2126.507 L932.835012,2126.507 C931.82305,2126.507 931,2127.31719 931,2128.31334 L931,2139.02242 C931,2140.01857 931.82305,2140.82876 932.835012,2140.82876 L948.165388,2140.82876 C949.17735,2140.82876 950.0004,2140.01857 950.0004,2139.02242 L950.0004,2128.31334 C950.0004,2127.31719 949.17735,2126.507 948.165388,2126.507 L948.165388,2126.507 Z" id="Fill-1" stroke="none" fill="#B8B8B8" fill-rule="evenodd"></path>
</svg>
