
<svg width="27px" height="21px" viewBox="75 23 27 21" version="1.1" xmlns="http://www.w3.org/2000/svg" xmlns:xlink="http://www.w3.org/1999/xlink">
    <!-- Generator: Sketch 3.8.3 (29802) - http://www.bohemiancoding.com/sketch -->
    <desc>Created with Sketch.</desc>
    <defs>
        <polygon id="path-1" points="26.6862667 0.0002625 0 0.0002625 0 20.1155062 26.6862667 20.1155062 26.6862667 0.0002625"></polygon>
    </defs>
    <g id="Group" stroke="none" stroke-width="1" fill="none" fill-rule="evenodd" transform="translate(75.000000, 23.000000)">
        <mask id="mask-2" fill="white">
            <use xlink:href="#path-1"></use>
        </mask>
        <g id="Clip-2"></g>
        <path d="M18.3502667,9.92000625 L24.3116,4.05181875 L24.3116,15.7606312 L18.3502667,9.92000625 Z M10.0089333,11.5671937 L12.5249333,14.0438812 C12.6769333,14.1935062 12.9489333,14.3720062 13.4129333,14.3720062 C13.7742667,14.3720062 14.1196,14.1948187 14.2316,14.0084437 L16.7116,11.5671937 L23.0209333,17.7779437 L3.6916,17.7845062 L10.0089333,11.5671937 Z M8.3356,9.92000625 L2.3756,15.7606312 L2.3756,4.05181875 L8.3356,9.92000625 Z M16.2062667,8.70463125 L13.3396,11.5540687 L3.97826667,2.33900625 L22.7036,2.33900625 L16.2062667,8.70463125 Z M24.1089333,0.00013125 L2.57693333,0.00013125 C1.1556,0.00013125 -0.0004,1.13806875 -0.0004,2.53719375 L-0.0004,17.5784437 C-0.0004,18.9775687 1.1556,20.1155062 2.57693333,20.1155062 L24.1089333,20.1155062 C25.5302667,20.1155062 26.6862667,18.9775687 26.6862667,17.5784437 L26.6862667,2.53719375 C26.6862667,1.13806875 25.5302667,0.00013125 24.1089333,0.00013125 L24.1089333,0.00013125 Z" id="Fill-1" fill="#FFFFFF" mask="url(#mask-2)"></path>
    </g>
</svg>
