
<svg width="11px" height="18px" viewBox="937 2186 11 18" version="1.1" xmlns="http://www.w3.org/2000/svg" xmlns:xlink="http://www.w3.org/1999/xlink">
    <!-- Generator: Sketch 3.8.3 (29802) - http://www.bohemiancoding.com/sketch -->
    <desc>Created with Sketch.</desc>
    <defs></defs>
    <path d="M943.470676,2201.1315 C943.470676,2201.64939 943.01752,2202.1018 942.500372,2202.1018 C941.98248,2202.1018 941.529324,2201.64939 941.529324,2201.1315 C941.529324,2200.61361 941.98248,2200.16119 942.500372,2200.16119 C943.01752,2200.16119 943.470676,2200.61361 943.470676,2201.1315 M946.511804,2202.61969 L938.488196,2202.61969 C938.423459,2202.61969 938.293986,2202.55496 938.293986,2202.49022 L938.293986,2199.70804 L946.706014,2199.70804 L946.706014,2202.49022 C946.706014,2202.55496 946.706014,2202.61969 946.511804,2202.61969 M938.488196,2187.80098 L946.576541,2187.80098 C946.641277,2187.80098 946.706014,2187.86572 946.706014,2187.86572 L946.706014,2198.41331 L938.293986,2198.41331 L938.293986,2187.93046 C938.293986,2187.86572 938.423459,2187.80098 938.488196,2187.80098 M946.576541,2186.507 L938.488196,2186.507 C937.646621,2186.507 937,2187.15436 937,2187.93046 L937,2202.49022 C937,2203.26706 937.646621,2203.91368 938.488196,2203.91368 L946.511804,2203.91368 C947.353379,2203.91368 948,2203.3318 948,2202.49022 L948,2187.86572 C948,2187.08963 947.353379,2186.507 946.576541,2186.507" id="Fill-1" stroke="none" fill="#B8B8B8" fill-rule="evenodd"></path>
</svg>
