
<svg width="283px" height="130px" viewBox="971 836 283 130" version="1.1" xmlns="http://www.w3.org/2000/svg" xmlns:xlink="http://www.w3.org/1999/xlink">
    <!-- Generator: Sketch 39 (31667) - http://www.bohemiancoding.com/sketch -->
    <desc>Created with Sketch.</desc>
    <defs></defs>
    <g id="Group-2-Copy-3" opacity="0.291336287" stroke="none" stroke-width="1" fill="none" fill-rule="evenodd" transform="translate(1112.000000, 902.000000) rotate(-180.000000) translate(-1112.000000, -902.000000) translate(976.000000, 843.000000)">
        <path d="M32.7449817,8.28973875 C43.3106046,10.1252968 50.3885073,20.1788398 48.552191,30.7455064 C46.7166752,41.3113726 36.6633637,48.3886377 26.0977408,46.5530797 C15.5313175,44.7175216 8.4542153,34.6639786 10.2897311,24.097312 C12.1252469,13.5314458 22.1793589,6.45418067 32.7449817,8.28973875 L32.7449817,8.28973875 Z" id="Stroke-7" stroke="#B8B8B8" stroke-width="9.6"></path>
        <path d="M114.744982,64.2897388 C125.310605,66.1252968 132.388507,76.1788398 130.552191,86.7455064 C128.716675,97.3113726 118.663364,104.388638 108.097741,102.55308 C97.5313175,100.717522 90.4542153,90.6639786 92.2897311,80.097312 C94.1252469,69.5314458 104.179359,62.4541807 114.744982,64.2897388 L114.744982,64.2897388 Z" id="Stroke-9" stroke="#B8B8B8" stroke-width="9.6"></path>
        <path d="M255.744982,0.28973875 C266.310605,2.12529683 273.388507,12.1788398 271.552191,22.7455064 C269.716675,33.3113726 259.663364,40.3886377 249.097741,38.5530797 C238.531317,36.7175216 231.454215,26.6639786 233.289731,16.097312 C235.125247,5.53144582 245.179359,-1.54581933 255.744982,0.28973875 L255.744982,0.28973875 Z" id="Stroke-11" stroke="#B8B8B8" stroke-width="9.6"></path>
        <polygon id="Stroke-15" stroke="#B8B8B8" stroke-width="7.8704" points="146 38.3101995 158.188209 12 174.878355 35.7101591"></polygon>
        <polygon id="Stroke-21" stroke="#B8B8B8" stroke-width="7.8704" points="2.27373675e-13 89 27.3710389 98.5684369 5.39928224 117.489174"></polygon>
    </g>
</svg>
