
<svg width="502px" height="198px" viewBox="184 22 502 198" version="1.1" xmlns="http://www.w3.org/2000/svg" xmlns:xlink="http://www.w3.org/1999/xlink">
    <!-- Generator: Sketch 39 (31667) - http://www.bohemiancoding.com/sketch -->
    <desc>Created with Sketch.</desc>
    <defs></defs>
    <g id="Group-2" stroke="none" stroke-width="1" fill="none" fill-rule="evenodd" transform="translate(190.000000, 27.000000)">
        <path d="M80,168.418652 C80,179.143018 71.3059148,187.837303 60.5817956,187.837303 C49.8576764,187.837303 41.1643917,179.143018 41.1643917,168.418652 C41.1643917,157.694285 49.8576764,149 60.5817956,149 C71.3059148,149 80,157.694285 80,168.418652 L80,168.418652 Z" id="Stroke-1" stroke="#B8B8B8" stroke-width="9.6" opacity="0.3" transform="translate(60.582196, 168.418652) rotate(-360.000000) translate(-60.582196, -168.418652) "></path>
        <polygon id="Stroke-3" stroke="#133C72" stroke-width="7.8704" transform="translate(350.074556, 56.928388) rotate(-360.000000) translate(-350.074556, -56.928388) " points="336 49.9563889 364.149112 43 356.098618 70.8567753"></polygon>
        <path d="M102.744982,71.2897388 C113.310605,73.1252968 120.388507,83.1788398 118.552191,93.7455064 C116.716675,104.311373 106.663364,111.388638 96.0977408,109.55308 C85.5313175,107.717522 78.4542153,97.6639786 80.2897311,87.097312 C82.1252469,76.5314458 92.1793589,69.4541807 102.744982,71.2897388 L102.744982,71.2897388 Z" id="Stroke-5" stroke="#FF5204" stroke-width="9.6" transform="translate(99.421064, 90.421409) rotate(-360.000000) translate(-99.421064, -90.421409) "></path>
        <path d="M29.7449817,6.28973875 C40.3106046,8.12529683 47.3885073,18.1788398 45.552191,28.7455064 C43.7166752,39.3113726 33.6633637,46.3886377 23.0977408,44.5530797 C12.5313175,42.7175216 5.4542153,32.6639786 7.28973111,22.097312 C9.12524693,11.5314458 19.1793589,4.45418067 29.7449817,6.28973875 L29.7449817,6.28973875 Z" id="Stroke-7" stroke="#B8B8B8" stroke-width="9.6" opacity="0.3" transform="translate(26.421064, 25.421409) rotate(-360.000000) translate(-26.421064, -25.421409) "></path>
        <path d="M211.744982,71.2897388 C222.310605,73.1252968 229.388507,83.1788398 227.552191,93.7455064 C225.716675,104.311373 215.663364,111.388638 205.097741,109.55308 C194.531317,107.717522 187.454215,97.6639786 189.289731,87.097312 C191.125247,76.5314458 201.179359,69.4541807 211.744982,71.2897388 L211.744982,71.2897388 Z" id="Stroke-9" stroke="#B8B8B8" stroke-width="9.6" opacity="0.3" transform="translate(208.421064, 90.421409) rotate(-360.000000) translate(-208.421064, -90.421409) "></path>
        <path d="M269.744982,0.28973875 C280.310605,2.12529683 287.388507,12.1788398 285.552191,22.7455064 C283.716675,33.3113726 273.663364,40.3886377 263.097741,38.5530797 C252.531317,36.7175216 245.454215,26.6639786 247.289731,16.097312 C249.125247,5.53144582 259.179359,-1.54581933 269.744982,0.28973875 L269.744982,0.28973875 Z" id="Stroke-11" stroke="#B8B8B8" stroke-width="9.6" opacity="0.3" transform="translate(266.421064, 19.421409) rotate(-360.000000) translate(-266.421064, -19.421409) "></path>
        <path d="M474.744982,12.2897388 C485.310605,14.1252968 492.388507,24.1788398 490.552191,34.7455064 C488.716675,45.3113726 478.663364,52.3886377 468.097741,50.5530797 C457.531317,48.7175216 450.454215,38.6639786 452.289731,28.097312 C454.125247,17.5314458 464.179359,10.4541807 474.744982,12.2897388 L474.744982,12.2897388 Z" id="Stroke-13" stroke="#B8B8B8" stroke-width="9.6" opacity="0.3" transform="translate(471.421064, 31.421409) rotate(-360.000000) translate(-471.421064, -31.421409) "></path>
        <polygon id="Stroke-15" stroke="#B8B8B8" stroke-width="7.8704" opacity="0.3" transform="translate(122.439178, 18.155100) rotate(-360.000000) translate(-122.439178, -18.155100) " points="108 31.3101995 120.188209 5 136.878355 28.7101591"></polygon>
        <polygon id="Stroke-17" stroke="#B8B8B8" stroke-width="7.8704" opacity="0.3" transform="translate(310.035524, 150.461924) rotate(-360.000000) translate(-310.035524, -150.461924) " points="297 136 323.071049 148.690407 299.046044 164.923848"></polygon>
        <polygon id="Stroke-19" stroke="#B8B8B8" stroke-width="7.8704" opacity="0.3" transform="translate(169.685519, 164.244587) rotate(-360.000000) translate(-169.685519, -164.244587) " points="156 150 183.371039 159.568437 161.399282 178.489174"></polygon>
        <polygon id="Stroke-21" stroke="#B8B8B8" stroke-width="7.8704" opacity="0.3" transform="translate(13.685519, 113.244587) rotate(-360.000000) translate(-13.685519, -113.244587) " points="3.55271368e-15 99 27.3710389 108.568437 5.39928224 127.489174"></polygon>
    </g>
</svg>
