
<svg width="17px" height="19px" viewBox="933 2154 17 19" version="1.1" xmlns="http://www.w3.org/2000/svg" xmlns:xlink="http://www.w3.org/1999/xlink">
    <!-- Generator: Sketch 3.8.3 (29802) - http://www.bohemiancoding.com/sketch -->
    <desc>Created with Sketch.</desc>
    <defs></defs>
    <path d="M943.800271,2171.298 L943.842271,2171.318 C943.939271,2171.365 944.043271,2171.404 944.151271,2171.435 C944.291271,2171.473 944.440271,2171.497 944.587271,2171.505 C944.626271,2171.507 944.664271,2171.508 944.701271,2171.508 C945.509271,2171.508 946.303271,2171.082 946.827271,2170.724 C946.887271,2170.684 946.937271,2170.649 946.984271,2170.614 C947.116271,2170.518 947.301271,2170.366 947.495271,2170.195 L947.661271,2169.65 C947.572271,2169.527 947.475271,2169.398 947.373271,2169.267 C946.969271,2168.747 945.945271,2167.517 944.889271,2166.936 C944.744271,2166.973 944.492271,2167.058 944.368271,2167.108 C944.343271,2167.141 944.306271,2167.194 944.275271,2167.238 C944.198271,2167.351 944.093271,2167.504 943.951271,2167.67 C943.454271,2168.253 942.898271,2168.549 942.297271,2168.549 C941.738271,2168.549 941.320271,2168.282 941.141271,2168.169 L941.080271,2168.124 C940.268271,2167.465 939.472271,2166.506 938.731271,2165.567 L938.696271,2165.537 L938.682271,2165.512 L938.619271,2165.45 L938.608271,2165.406 C937.903271,2164.487 937.202271,2163.515 936.775271,2162.592 L936.747271,2162.524 C936.242271,2161.012 937.264271,2160.244 937.918271,2159.921 C938.110271,2159.826 938.282271,2159.763 938.407271,2159.717 C938.467271,2159.695 938.528271,2159.672 938.566271,2159.656 C938.643271,2159.549 938.786271,2159.329 938.861271,2159.189 C938.570271,2158.075 937.713271,2156.857 937.212271,2156.212 C937.092271,2156.057 936.989271,2155.931 936.911271,2155.838 L936.342271,2155.865 C936.200271,2155.962 935.973271,2156.123 935.813271,2156.255 C935.768271,2156.293 935.719271,2156.334 935.668271,2156.38 C935.160271,2156.83 934.524271,2157.535 934.359271,2158.361 C934.329271,2158.511 934.315271,2158.661 934.319271,2158.806 C934.322271,2158.914 934.335271,2159.024 934.356271,2159.133 L934.363271,2159.168 C934.895271,2161.288 936.207271,2163.909 937.731271,2165.907 L937.786271,2165.907 L938.000271,2166.255 C939.561271,2168.261 941.834271,2170.237 943.800271,2171.298 M944.522271,2172.822 C944.279271,2172.81 944.033271,2172.771 943.793271,2172.704 C943.622271,2172.655 943.461271,2172.595 943.308271,2172.525 C943.274271,2172.512 943.242271,2172.496 943.210271,2172.479 C941.141271,2171.371 938.759271,2169.324 937.086271,2167.226 L936.945271,2167.056 L936.861271,2166.938 L936.793271,2166.852 C935.110271,2164.69 933.651271,2161.784 933.073271,2159.447 C933.066271,2159.416 933.060271,2159.386 933.056271,2159.355 C933.025271,2159.185 933.006271,2159.013 933.001271,2158.843 C932.994271,2158.598 933.016271,2158.349 933.065271,2158.103 C933.302271,2156.917 934.134271,2155.976 934.790271,2155.395 C934.850271,2155.342 934.911271,2155.29 934.969271,2155.242 C935.267271,2154.995 935.704271,2154.704 935.745271,2154.678 C935.849271,2154.608 935.986271,2154.563 936.127271,2154.555 L937.141271,2154.507 C937.368271,2154.507 937.584271,2154.604 937.734271,2154.773 C937.794271,2154.84 937.990271,2155.064 938.253271,2155.402 C938.980271,2156.338 939.906271,2157.735 940.189271,2159.076 C940.313271,2159.654 939.509271,2160.585 939.501271,2160.593 C939.316271,2160.786 939.094271,2160.868 938.880271,2160.948 C938.755271,2160.994 938.632271,2161.04 938.503271,2161.104 C937.810271,2161.446 937.889271,2161.776 937.986271,2162.07 C938.370271,2162.885 939.029271,2163.789 939.690271,2164.649 L939.800271,2164.741 L939.820271,2164.817 C940.488271,2165.663 941.197271,2166.513 941.882271,2167.077 C941.990271,2167.144 942.139271,2167.23 942.296271,2167.23 C942.542271,2167.23 942.786271,2167.004 942.947271,2166.815 C943.044271,2166.701 943.120271,2166.59 943.187271,2166.493 C943.321271,2166.3 943.455271,2166.106 943.685271,2165.973 C943.822271,2165.895 944.578271,2165.599 944.974271,2165.599 C945.102271,2165.599 945.220271,2165.625 945.324271,2165.675 C946.630271,2166.317 947.820271,2167.693 948.413271,2168.456 C948.534271,2168.611 948.715271,2168.849 948.886271,2169.099 C949.035271,2169.326 949.068271,2169.575 948.992271,2169.804 L948.714271,2170.72 C948.671271,2170.861 948.590271,2170.986 948.482271,2171.082 C948.323271,2171.226 948.021271,2171.491 947.764271,2171.678 C947.705271,2171.721 947.638271,2171.769 947.564271,2171.818 C946.893271,2172.276 945.846271,2172.826 944.701271,2172.826 C944.642271,2172.826 944.582271,2172.825 944.522271,2172.822 Z" id="Fill-1" stroke="none" fill="#B8B8B8" fill-rule="evenodd"></path>
</svg>
