
<svg width="139px" height="29px" viewBox="1121 595 139 29" version="1.1" xmlns="http://www.w3.org/2000/svg" xmlns:xlink="http://www.w3.org/1999/xlink">
    <!-- Generator: Sketch 39 (31667) - http://www.bohemiancoding.com/sketch -->
    <desc>Created with Sketch.</desc>
    <defs></defs>
    <g id="Group-9" opacity="0.226679104" stroke="none" stroke-width="1" fill="none" fill-rule="evenodd" transform="translate(1122.000000, 595.000000)">
        <path d="M8.8554819,0.57959153 L19.8017295,6.95739456 C20.1841867,7.18060668 20.4194438,7.59056123 20.4194438,8.03434911 L20.4194438,9.21368244 L6.52832,1.11960668 L7.46452952,0.577833954 C7.89517714,0.328258196 8.42571048,0.329136984 8.8554819,0.57959153 L8.8554819,0.57959153 Z M4.89641524,2.06474304 L20.4194438,11.1096673 L20.4194438,13.0060915 L3.26407238,3.00987941 L4.89641524,2.06474304 Z M1.63479619,5.8527582 L3.26932952,6.80492486 L3.26932952,17.4149703 L1.63479619,18.3807582 L1.63479619,5.8527582 Z M4.90386286,7.75753092 L6.53839619,8.71013698 L6.53839619,15.483834 L4.90386286,16.4496218 L4.90386286,7.75753092 Z M8.17336762,9.66230365 L12.3116152,12.0736976 L8.17336762,14.5184855 L8.17336762,9.66230365 Z M0.62104381,4.54072789 C0.236834286,4.76306123 -0.000175238095,5.17433395 -0.000175238095,5.61944001 L-0.000175238095,19.3461067 L-0.000175238095,21.4551976 L-0.000175238095,23.647334 C-0.000175238095,24.0906824 0.235081905,24.500637 0.616662857,24.7238491 L1.63479619,25.3183491 L1.63479619,21.4551976 L1.63479619,20.283334 L13.9334438,13.0183946 L15.5548343,13.9635309 L3.26932952,21.2205612 L3.26932952,21.4551976 L3.26932952,26.2731521 L4.90386286,27.2283946 L4.90386286,22.1577885 L17.1762248,14.9082279 L18.7980533,15.8529249 L6.53839619,23.0945764 L6.53839619,28.1831976 L7.58456762,28.7943946 C7.84567238,28.9468643 8.17336762,28.7579249 8.17336762,28.4551824 L8.17336762,24.0318037 L20.0496914,17.01644 C20.2788152,16.8811067 20.4194438,16.6341673 20.4194438,16.3674552 L20.4194438,14.9020764 L1.63216762,3.95501577 L0.62104381,4.54072789 Z" id="Fill-1" fill="#FFFFFF"></path>
        <path d="M71.1625257,9.91152789 L69.9923733,11.1528158 C69.2125638,10.3931037 68.3092114,9.95678547 67.1837448,9.95678547 C65.1439733,9.95678547 63.5935543,11.5438764 63.5935543,13.7689673 C63.5935543,15.9931794 65.1439733,17.592134 67.1837448,17.592134 C68.3092114,17.592134 69.300621,17.0890279 70.0374971,16.3736946 L71.1625257,17.6373915 C70.2039733,18.7213764 68.7990019,19.303134 67.2271162,19.303134 C63.9501638,19.303134 61.7320876,16.9220582 61.7320876,13.7689673 C61.7320876,10.6163158 63.9501638,8.23480062 67.2271162,8.23480062 C68.7990019,8.23480062 70.2158019,8.8165582 71.1625257,9.91152789" id="Fill-4" fill="#FFFFFF"></path>
        <path d="M79.4531276,8.5816582 L79.0080229,10.3814158 C78.5064038,10.1129461 77.7931848,9.96750668 77.1912419,9.96750668 C75.5746705,9.96750668 74.4378133,11.2087946 74.4378133,13.1654158 L74.4378133,19.0792188 L72.6210324,19.0792188 L72.6210324,8.45862789 L74.4159086,8.45862789 L74.4159086,9.85634001 C75.1510324,8.81673395 76.2545943,8.23497638 77.5145562,8.23497638 C78.2715848,8.23497638 78.8849181,8.33603698 79.4531276,8.5816582" id="Fill-6" fill="#FFFFFF"></path>
        <path d="M81.2798971,12.9415446 L87.7553829,12.9415446 C87.5337067,11.0635749 86.3184305,9.85655971 84.6019733,9.85655971 C82.72824,9.85655971 81.5580876,11.1303627 81.2798971,12.9415446 M89.6172876,13.7355294 C89.6172876,13.9706052 89.5953829,14.2162264 89.5839924,14.4174688 L81.2584305,14.4174688 C81.5134019,16.6201506 83.0414781,17.7041355 84.858259,17.7041355 C86.09544,17.7041355 87.2204686,17.2234385 88.123821,16.4413173 L89.0937638,17.69359 C87.7786019,18.9230143 86.30704,19.30309 84.7469829,19.30309 C81.6032114,19.30309 79.3733067,17.0784385 79.3733067,13.7689233 C79.3733067,10.5042264 81.5913829,8.23475668 84.6352686,8.23475668 C87.5218781,8.23475668 89.5953829,10.4822567 89.6172876,13.7355294" id="Fill-8" fill="#FFFFFF"></path>
        <path d="M92.3906495,13.7690112 C92.3906495,15.8820567 93.8622114,17.5921779 96.03604,17.5921779 C98.1761352,17.5921779 99.6696019,15.9488446 99.6696019,13.7690112 C99.6696019,11.6001627 98.1761352,9.95682941 96.03604,9.95682941 C93.8289162,9.95682941 92.3906495,11.6559658 92.3906495,13.7690112 L92.3906495,13.7690112 Z M101.386059,19.079087 L99.5578876,19.079087 L99.5578876,17.6589658 C98.7228781,18.6546324 97.4843829,19.3031779 95.8240019,19.3031779 C92.8471448,19.3031779 90.5287448,16.9779052 90.5287448,13.7690112 C90.5287448,10.5601173 92.8471448,8.23484456 95.8240019,8.23484456 C97.4843829,8.23484456 98.7228781,8.88339001 99.5578876,9.88960214 L99.5578876,8.45893547 L101.386059,8.45893547 L101.386059,19.079087 Z" id="Fill-10" fill="#FFFFFF"></path>
        <path d="M111.538653,10.1246779 L107.091549,10.1246779 L107.091549,15.3002991 C107.091549,16.8992537 107.938387,17.5921779 109.086634,17.5921779 C109.866882,17.5921779 110.64713,17.2903143 111.250387,16.8768446 L112.106863,18.2517082 C111.293758,18.8444506 110.23532,19.3031779 108.930234,19.3031779 C106.635053,19.3031779 105.263377,18.0394809 105.263377,15.333693 L105.263377,10.1246779 L103.001491,10.1246779 L103.001491,8.45893547 L105.263377,8.45893547 L105.263377,5.12701123 L107.091549,5.12701123 L107.091549,8.45893547 L111.538653,8.45893547 L111.538653,10.1246779 Z" id="Fill-12" fill="#FFFFFF"></path>
        <polygon id="Fill-14" fill="#FFFFFF" points="113.56699 19.0792627 115.383771 19.0792627 115.383771 8.45867183 113.56699 8.45867183"></polygon>
        <polygon id="Fill-16" fill="#FFFFFF" points="123.329461 19.0901158 121.189366 19.0901158 116.73087 8.45897941 118.71588 8.45897941 122.271023 17.2345552 125.837994 8.45897941 127.76649 8.45897941"></polygon>
        <path d="M129.64824,12.9415446 L136.123726,12.9415446 C135.90205,11.0635749 134.686773,9.85655971 132.970316,9.85655971 C131.096583,9.85655971 129.92643,11.1303627 129.64824,12.9415446 M137.98563,13.7355294 C137.98563,13.9706052 137.963726,14.2162264 137.952335,14.4174688 L129.626773,14.4174688 C129.881745,16.6201506 131.409821,17.7041355 133.226602,17.7041355 C134.463783,17.7041355 135.588811,17.2234385 136.492164,16.4413173 L137.462107,17.69359 C136.146945,18.9230143 134.675383,19.30309 133.115326,19.30309 C129.971554,19.30309 127.74165,17.0784385 127.74165,13.7689233 C127.74165,10.5042264 129.959726,8.23475668 133.003611,8.23475668 C135.890221,8.23475668 137.963726,10.4822567 137.98563,13.7355294" id="Fill-17" fill="#FFFFFF"></path>
        <path d="M31.6539581,13.7681324 C31.6539581,15.4479355 32.4661867,16.5741021 34.0862629,16.5741021 C35.7724914,16.5741021 36.7030057,15.3829052 36.7030057,13.757587 C36.7030057,12.2074052 35.6270438,11.2112991 34.1370819,11.2279961 C32.5170057,11.2460112 31.6539581,12.3840415 31.6539581,13.7681324 M39.864739,13.7514355 C39.864739,16.9471476 37.7128152,19.4631173 34.6500914,19.4631173 C33.2262819,19.4631173 32.2997105,18.8321476 31.6706057,17.9744506 L31.6706057,23.4761021 L28.4580533,23.4761021 L28.4580533,8.44267789 L31.6706057,8.44267789 L31.6706057,9.61761729 C32.3601676,8.75025365 33.1561867,8.15707183 34.611539,8.15707183 C37.546339,8.15707183 39.864739,10.5557233 39.864739,13.7514355" id="Fill-18" fill="#FFFFFF"></path>
        <polygon id="Fill-19" fill="#FFFFFF" points="41.4898095 19.0836567 44.712 19.0836567 44.712 4.1838082 41.4898095 4.1838082"></polygon>
        <path d="M54.9029276,8.43824001 L52.1236514,14.9548915 L49.4648514,8.43824001 L46.031499,8.43824001 L50.3813467,19.0996946 L50.3143181,19.2732552 C49.7316514,20.3506491 48.690299,20.4218309 48.5987371,20.4257855 L47.5876133,20.4257855 L47.5876133,23.6135885 L48.5987371,23.6135885 C49.7447943,23.6135885 51.9992324,22.9905279 53.1807752,20.6529521 L53.5597276,19.6937552 L58.3599371,8.43824001 L54.9029276,8.43824001 Z" id="Fill-20" fill="#FFFFFF"></path>
    </g>
</svg>
