
<svg width="210px" height="51px" viewBox="0 0 210 51" version="1.1" xmlns="http://www.w3.org/2000/svg" xmlns:xlink="http://www.w3.org/1999/xlink">
    <!-- Generator: Sketch 3.8.3 (29802) - http://www.bohemiancoding.com/sketch -->
    <desc>Created with Sketch.</desc>
    <defs>
        <polygon id="path-1" points="0.232495146 10.905446 9.77492233 10.905446 9.77492233 0.21960842 0.232495146 0.21960842 0.232495146 10.905446"></polygon>
        <polygon id="path-3" points="0 49.0745072 209.741748 49.0745072 209.741748 0.618202472 0 0.618202472"></polygon>
    </defs>
    <g id="Group-21" stroke="none" stroke-width="1" fill="none" fill-rule="evenodd" transform="translate(0.000000, 0.063183)">
        <path d="M147.351767,39.5037514 L147.351767,47.7843929 L149.209825,47.7843929 C150.575165,47.7843929 151.655068,47.4020207 152.448854,46.6215997 C153.242641,45.8411788 153.639534,44.8385593 153.639534,43.6273732 C153.639534,42.4018737 153.242641,41.3985727 152.448854,40.6501864 C151.670699,39.8861236 150.590796,39.5037514 149.209825,39.5037514 L147.351767,39.5037514 L147.351767,39.5037514 Z M149.225456,38.3886696 C150.972058,38.3886696 152.353709,38.8828226 153.385359,39.8534073 C154.417689,40.8246736 154.925359,42.0828894 154.925359,43.6273732 C154.925359,45.171857 154.417689,46.4300728 153.385359,47.4183789 C152.353709,48.4053218 150.972058,48.8987932 149.225456,48.8987932 L146.113515,48.8987932 L146.113515,38.3886696 L149.225456,38.3886696 L149.225456,38.3886696 Z" id="Fill-2" fill="#133C72"></path>
        <g id="Group-6" transform="translate(155.631068, 38.169061)">
            <mask id="mask-2" fill="white">
                <use xlink:href="#path-1"></use>
            </mask>
            <g id="Clip-5"></g>
            <polygon id="Fill-4" fill="#133C72" mask="url(#mask-2)" points="8.40958252 0.21960842 9.77492233 0.21960842 5.23375728 10.9055824 4.77366019 10.9055824 0.232495146 0.21960842 1.59783495 0.21960842 5.01152427 8.43686201"></polygon>
        </g>
        <path d="M139.173728,38.2137053 L134.632563,48.8989977 L135.934699,48.8989977 L136.839942,46.7656198 L141.95266,46.7656198 L142.857223,48.8989977 L144.17499,48.8989977 L139.634505,38.2137053 L139.173728,38.2137053 Z M139.395961,40.4908988 L141.491883,45.6505379 L137.299359,45.6505379 L139.395961,40.4908988 Z" id="Fill-1" fill="#133C72"></path>
        <mask id="mask-4" fill="white">
            <use xlink:href="#path-3"></use>
        </mask>
        <g id="Clip-8"></g>
        <polygon id="Fill-7" fill="#133C72" mask="url(#mask-4)" points="167.344175 48.8986569 168.582427 48.8986569 168.582427 38.3885332 167.344175 38.3885332"></polygon>
        <path d="M177.776485,39.9972229 L176.871243,40.6815396 C176.284058,39.805696 175.490272,39.3599359 174.473573,39.3599359 C173.441922,39.3599359 172.616194,39.9174768 172.616194,40.8887431 C172.616194,41.3501798 172.743282,41.669164 173.108233,41.9711086 C173.489495,42.2744163 173.679786,42.3534808 174.298913,42.6561069 L175.45833,43.2143294 C177.109786,43.9940688 177.903573,44.805843 177.903573,46.1444865 C177.903573,47.0203301 177.586194,47.7203234 176.950757,48.2615062 C176.316,48.8033705 175.505903,49.0746435 174.521146,49.0746435 C172.886,49.0746435 171.488718,48.2137949 170.66299,46.812445 L171.583864,46.1281283 C172.362019,47.3215931 173.346777,47.9282085 174.505515,47.9282085 C175.760078,47.9282085 176.617068,47.2425286 176.617068,46.175158 C176.617068,45.2836378 176.125029,44.9176238 174.870466,44.3287297 L173.696097,43.7705072 C172.219301,43.0548373 171.329689,42.2900929 171.329689,40.952131 C171.329689,40.1410384 171.631437,39.4717167 172.250563,38.9782452 C172.870369,38.4684156 173.616583,38.2135008 174.489883,38.2135008 C175.887165,38.2135008 177.093476,38.9298523 177.776485,39.9972229" id="Fill-9" fill="#133C72" mask="url(#mask-4)"></path>
        <path d="M182.096097,40.5859125 C181.317942,41.3983682 180.921049,42.4016692 180.921049,43.6271687 C180.921049,44.854713 181.317942,45.8893672 182.096097,46.7011413 C182.889883,47.5135971 183.890272,47.928004 185.080951,47.928004 C186.272311,47.928004 187.256388,47.5135971 188.034544,46.7011413 C188.82833,45.8893672 189.225223,44.854713 189.225223,43.6271687 C189.225223,42.4180274 188.82833,41.3983682 188.034544,40.5859125 C187.256388,39.7748199 186.272311,39.360413 185.080951,39.360413 C183.890272,39.360413 182.889883,39.7748199 182.096097,40.5859125 M181.207165,47.5135971 C180.159204,46.4619031 179.635223,45.1723341 179.635223,43.6435269 C179.635223,42.1147197 180.159204,40.8244691 181.207165,39.7898149 C182.270757,38.7394841 183.556583,38.2139779 185.06532,38.2139779 C186.574058,38.2139779 187.859883,38.7394841 188.923476,39.7898149 C189.987748,40.8244691 190.511728,42.1147197 190.511728,43.6435269 C190.511728,45.1723341 189.987748,46.4619031 188.923476,47.5135971 C187.859883,48.5489328 186.574058,49.074439 185.06532,49.074439 C183.540951,49.074439 182.255126,48.5489328 181.207165,47.5135971" id="Fill-10" fill="#133C72" mask="url(#mask-4)"></path>
        <path d="M193.958243,39.5037514 L193.958243,43.3724584 L196.355913,43.3724584 C197.705621,43.3724584 198.467466,42.6083956 198.467466,41.446284 C198.467466,40.299849 197.689311,39.5037514 196.355913,39.5037514 L193.958243,39.5037514 Z M200.897078,48.8987932 L199.452223,48.8987932 L196.196883,44.4882219 L193.958243,44.4882219 L193.958243,48.8987932 L192.71999,48.8987932 L192.71999,38.3886696 L196.403485,38.3886696 C197.419505,38.3886696 198.229602,38.6749375 198.833097,39.2488366 C199.452223,39.805696 199.753971,40.5390872 199.753971,41.4306074 C199.753971,42.8476338 198.911932,43.9463575 197.562903,44.3450879 L200.897078,48.8987932 Z" id="Fill-11" fill="#133C72" mask="url(#mask-4)"></path>
        <polygon id="Fill-12" fill="#133C72" mask="url(#mask-4)" points="209.742087 38.3886696 206.106165 44.5352516 206.106165 48.8987932 204.867233 48.8987932 204.867233 44.5352516 201.231311 38.3886696 202.628592 38.3886696 205.487039 43.3254287 208.360437 38.3886696"></polygon>
        <path d="M56.9464951,20.2648406 C56.9464951,24.2446468 54.6589223,26.6206709 50.8265922,26.6206709 C47.0520291,26.6206709 44.7073689,24.1853485 44.7073689,20.2648406 L44.7073689,2.75955496 L38.4617379,2.75955496 L38.4617379,19.8286228 C38.4617379,23.6428025 39.6211553,26.7399492 41.9114466,29.0362272 C44.2567864,31.2997888 47.2565922,32.447587 50.8265922,32.447587 C54.4129029,32.447587 57.3977573,31.2997888 59.6996019,29.0355456 C62.049699,26.7229095 63.1921262,23.7116432 63.1921262,19.8286228 L63.1921262,2.75955496 L56.9464951,2.75955496 L56.9464951,20.2648406 Z" id="Fill-13" fill="#133C72" mask="url(#mask-4)"></path>
        <path d="M81.9562718,22.9563047 L74.9365631,22.9563047 L78.4460777,13.9743067 L81.9562718,22.9563047 Z M77.367534,2.23732041 L64.3726796,31.9246709 L71.0886019,31.9246709 L72.6972427,28.1731975 L84.194233,28.1731975 L85.804233,31.9246709 L92.5194757,31.9246709 L79.5687961,2.23732041 L77.367534,2.23732041 Z" id="Fill-14" fill="#133C72" mask="url(#mask-4)"></path>
        <polygon id="Fill-15" fill="#133C72" mask="url(#mask-4)" points="113.663553 19.6198517 97.2726796 2.23725226 95.0918058 2.23725226 95.0918058 31.9246027 101.337437 31.9246027 101.337437 14.9380074 117.684136 32.4480641 119.909184 32.4480641 119.909184 2.76003207 113.663553 2.76003207"></polygon>
        <polygon id="Fill-16" fill="#133C72" mask="url(#mask-4)" points="123.406534 8.45662813 132.58401 8.45662813 132.58401 31.9244664 138.828961 31.9244664 138.828961 8.45662813 148.049932 8.45662813 148.049932 2.75989576 123.406534 2.75989576"></polygon>
        <path d="M169.77134,20.2648406 C169.77134,24.2446468 167.483767,26.6206709 163.651437,26.6206709 C159.876874,26.6206709 157.531534,24.1853485 157.531534,20.2648406 L157.531534,2.75955496 L151.286583,2.75955496 L151.286583,19.8286228 C151.286583,23.6428025 152.446,26.7399492 154.736291,29.0362272 C157.081631,31.2997888 160.080757,32.447587 163.651437,32.447587 C167.237748,32.447587 170.222602,31.2997888 172.524447,29.0355456 C174.874544,26.7229095 176.016971,23.7116432 176.016971,19.8286228 L176.016971,2.75955496 L169.77134,2.75955496 L169.77134,20.2648406 Z" id="Fill-17" fill="#133C72" mask="url(#mask-4)"></path>
        <polygon id="Fill-18" fill="#133C72" mask="url(#mask-4)" points="207.40266 2.23697962 195.359262 17.7349816 183.315184 2.23697962 181.123437 2.23697962 181.123437 31.9243301 187.369068 31.9243301 187.369068 16.8761777 194.311981 25.6434748 196.405864 25.6434748 203.348777 16.8761777 203.348777 31.9243301 209.594408 31.9243301 209.594408 2.23697962"></polygon>
        <path d="M17.087,7.57587705 C15.3261262,7.57587705 13.5883592,8.0393585 12.022534,8.94587371 C9.67243689,10.3070097 7.99107767,12.5044571 7.28835922,15.1340327 C6.58564078,17.7629268 6.94651456,20.5090545 8.30369903,22.8666756 C9.6608835,25.2242967 11.8519515,26.9098697 14.4732136,27.6139526 C17.0944757,28.3207618 19.8333107,27.9574741 22.1834078,26.5963381 C24.5341845,25.2352021 26.2155437,23.0384364 26.9175825,20.4081791 C27.620301,17.779285 27.2594272,15.0331574 25.9029223,12.6755363 C24.5457379,10.3179151 22.3546699,8.63234213 19.7334078,7.92825927 C18.8573883,7.692429 17.9691359,7.57587705 17.087,7.57587705 M17.1304951,34.9240094 C15.6455437,34.9240094 14.1510777,34.7283929 12.6783592,34.3323889 C8.26767961,33.1477848 4.58078641,30.3103241 2.29797087,26.3434681 C0.0144757282,22.3779753 -0.591737864,17.7574741 0.590106796,13.333271 C1.77195146,8.90974942 4.60049515,5.21212162 8.55515534,2.92265954 C12.5098155,0.633197461 17.1175825,0.0245372536 21.5275825,1.20982292 C25.9389417,2.394427 29.6251553,5.23256933 31.9086505,9.19874374 C34.191466,13.1642366 34.7983592,17.7854193 33.6165146,22.2089409 C32.4346699,26.6324624 29.6054466,30.3300902 25.6507864,32.6195523 C23.0172913,34.14427 20.0929223,34.9240094 17.1304951,34.9240094" id="Fill-19" fill="#133C72" mask="url(#mask-4)"></path>
        <polygon id="Fill-20" fill="#FF5204" mask="url(#mask-4)" points="22.184835 26.5984511 35.3217282 34.2049997 22.184835 41.8115483"></polygon>
    </g>
</svg>
