
<svg width="192px" height="46px" viewBox="0 0 192 46" version="1.1" xmlns="http://www.w3.org/2000/svg" xmlns:xlink="http://www.w3.org/1999/xlink">
    <!-- Generator: Sketch 3.8.3 (29802) - http://www.bohemiancoding.com/sketch -->
    <desc>Created with Sketch.</desc>
    <defs>
        <polygon id="path-1" points="0.21256699 9.91263892 8.93707184 9.91263892 8.93707184 0.199615766 0.21256699 0.199615766 0.21256699 9.91263892"></polygon>
        <polygon id="path-3" points="0 44.6068752 191.763883 44.6068752 191.763883 0.561922719 0 0.561922719"></polygon>
    </defs>
    <g id="Group-21" stroke="none" stroke-width="1" fill="none" fill-rule="evenodd" transform="translate(0.000000, 0.057431)">
        <path d="M134.721616,35.9074193 L134.721616,43.43421 L136.420412,43.43421 C137.668722,43.43421 138.656062,43.0866481 139.38181,42.3772749 C140.107557,41.6679016 140.470431,40.7565584 140.470431,39.6556359 C140.470431,38.5417031 140.107557,37.6297403 139.38181,36.9494855 C138.670353,36.2549812 137.683014,35.9074193 136.420412,35.9074193 L134.721616,35.9074193 L134.721616,35.9074193 Z M136.434703,34.893852 C138.031596,34.893852 139.294819,35.3430185 140.238043,36.2252433 C141.181887,37.1080877 141.646043,38.2517584 141.646043,39.6556359 C141.646043,41.0595134 141.181887,42.2031841 140.238043,43.101517 C139.294819,43.9986109 138.031596,44.4471578 136.434703,44.4471578 L133.589499,44.4471578 L133.589499,34.893852 L136.434703,34.893852 L136.434703,34.893852 Z" id="Fill-2" fill="#FFFFFF"></path>
        <g id="Group-6" transform="translate(142.291262, 34.694236)">
            <mask id="mask-2" fill="white">
                <use xlink:href="#path-1"></use>
            </mask>
            <g id="Clip-5"></g>
            <polygon id="Fill-4" fill="#FFFFFF" mask="url(#mask-2)" points="7.68876117 0.199615766 8.93707184 0.199615766 4.78514951 9.91276283 4.36448932 9.91276283 0.21256699 0.199615766 1.46087767 0.199615766 4.58196505 7.6687892"></polygon>
        </g>
        <mask id="mask-4" fill="white">
            <use xlink:href="#path-3"></use>
        </mask>
        <g id="Clip-8"></g>
        <polygon id="Fill-7" fill="#FFFFFF" mask="url(#mask-4)" points="153.000388 44.4470339 154.132505 44.4470339 154.132505 34.8937281 153.000388 34.8937281"></polygon>
        <path d="M162.538501,36.3559662 L161.71085,36.9779843 C161.173996,36.1818755 160.448249,35.7766964 159.518695,35.7766964 C158.575472,35.7766964 157.82052,36.2834801 157.82052,37.1663245 C157.82052,37.585753 157.936715,37.8756977 158.270384,38.1501539 C158.618967,38.4258492 158.792948,38.4977158 159.359006,38.7727915 L160.419045,39.2801947 C161.928948,39.9889484 162.654695,40.7268205 162.654695,41.9435969 C162.654695,42.7397057 162.36452,43.3759732 161.78355,43.8678879 C161.2032,44.3604222 160.46254,44.6069991 159.56219,44.6069991 C158.0672,44.6069991 156.789685,43.8245201 156.034734,42.550746 L156.876676,41.9287279 C157.588132,43.0135424 158.488482,43.5649329 159.547899,43.5649329 C160.694928,43.5649329 161.478462,42.9416757 161.478462,41.9714762 C161.478462,41.161118 161.028598,40.828425 159.881569,40.2931425 L158.80786,39.7857393 C157.457647,39.1352224 156.644287,38.4400986 156.644287,37.2239417 C156.644287,36.4866892 156.920171,35.878301 157.486229,35.429754 C158.052909,34.9663382 158.735161,34.7346302 159.533608,34.7346302 C160.811122,34.7346302 161.914035,35.3857667 162.538501,36.3559662" id="Fill-9" fill="#FFFFFF" mask="url(#mask-4)"></path>
        <path d="M166.48786,36.8910629 C165.776404,37.6295545 165.41353,38.5415173 165.41353,39.6554501 C165.41353,40.7712415 165.776404,41.7117031 166.48786,42.4495752 C167.213608,43.1880668 168.128249,43.564747 169.21687,43.564747 C170.306113,43.564747 171.205841,43.1880668 171.917297,42.4495752 C172.643045,41.7117031 173.005918,40.7712415 173.005918,39.6554501 C173.005918,38.5563862 172.643045,37.6295545 171.917297,36.8910629 C171.205841,36.1538104 170.306113,35.7771301 169.21687,35.7771301 C168.128249,35.7771301 167.213608,36.1538104 166.48786,36.8910629 M165.675122,43.1880668 C164.716986,42.2321166 164.237918,41.0599471 164.237918,39.670319 C164.237918,38.280691 164.716986,37.1079019 165.675122,36.1674402 C166.64755,35.2127292 167.823161,34.7350639 169.202579,34.7350639 C170.581996,34.7350639 171.757608,35.2127292 172.730035,36.1674402 C173.703083,37.1079019 174.182151,38.280691 174.182151,39.670319 C174.182151,41.0599471 173.703083,42.2321166 172.730035,43.1880668 C171.757608,44.1291479 170.581996,44.6068132 169.202579,44.6068132 C167.80887,44.6068132 166.633258,44.1291479 165.675122,43.1880668" id="Fill-10" fill="#FFFFFF" mask="url(#mask-4)"></path>
        <path d="M177.33325,35.9074193 L177.33325,39.423928 L179.525406,39.423928 C180.759425,39.423928 181.455969,38.7294237 181.455969,37.6731081 C181.455969,36.631042 180.744513,35.9074193 179.525406,35.9074193 L177.33325,35.9074193 Z M183.677328,44.4471578 L182.356318,44.4471578 L179.380008,40.4381149 L177.33325,40.4381149 L177.33325,44.4471578 L176.201134,44.4471578 L176.201134,34.893852 L179.568901,34.893852 C180.497833,34.893852 181.238493,35.1540588 181.79026,35.6757114 C182.356318,36.1818755 182.632202,36.8485005 182.632202,37.6588587 C182.632202,38.9468822 181.862338,39.9455806 180.62894,40.3080115 L183.677328,44.4471578 Z" id="Fill-11" fill="#FFFFFF" mask="url(#mask-4)"></path>
        <polygon id="Fill-12" fill="#FFFFFF" mask="url(#mask-4)" points="191.764194 34.893852 188.439922 40.4808631 188.439922 44.4471578 187.307184 44.4471578 187.307184 40.4808631 183.982913 34.893852 185.260427 34.893852 187.873864 39.3811797 190.500971 34.893852"></polygon>
        <path d="M52.065367,18.4199754 C52.065367,22.0374691 49.9738718,24.1971853 46.4700272,24.1971853 C43.0189981,24.1971853 40.8753087,21.9835691 40.8753087,18.4199754 L40.8753087,2.50833133 L35.1650175,2.50833133 L35.1650175,18.0234699 C35.1650175,21.4904153 36.2250563,24.3056048 38.3190369,26.3928348 C40.4633476,28.4503269 43.2060272,29.4936322 46.4700272,29.4936322 C49.7489398,29.4936322 52.4779495,28.4503269 54.5824932,26.3922153 C56.7311534,24.2901163 57.7756583,21.5529889 57.7756583,18.0234699 L57.7756583,2.50833133 L52.065367,2.50833133 L52.065367,18.4199754 Z" id="Fill-13" fill="#FFFFFF" mask="url(#mask-4)"></path>
        <path d="M74.9314485,20.8664147 L68.5134291,20.8664147 L71.7221282,12.7021175 L74.9314485,20.8664147 Z M70.7360311,2.03363983 L58.8550214,29.0183211 L64.9952932,29.0183211 L66.4660505,25.6083734 L76.9775845,25.6083734 L78.4495845,29.0183211 L84.589235,29.0183211 L72.7486136,2.03363983 L70.7360311,2.03363983 Z" id="Fill-14" fill="#FFFFFF" mask="url(#mask-4)"></path>
        <polygon id="Fill-15" fill="#FFFFFF" mask="url(#mask-4)" points="103.920963 17.8337048 88.9350214 2.03357788 86.9410796 2.03357788 86.9410796 29.0182592 92.6513709 29.0182592 92.6513709 13.578085 107.596924 29.4940659 109.631254 29.4940659 109.631254 2.508765 103.920963 2.508765"></polygon>
        <polygon id="Fill-16" fill="#FFFFFF" mask="url(#mask-4)" points="112.828831 7.68675585 121.219666 7.68675585 121.219666 29.0181353 126.929336 29.0181353 126.929336 7.68675585 135.359938 7.68675585 135.359938 2.5086411 112.828831 2.5086411"></polygon>
        <path d="M155.219511,18.4199754 C155.219511,22.0374691 153.128016,24.1971853 149.624171,24.1971853 C146.173142,24.1971853 144.028831,21.9835691 144.028831,18.4199754 L144.028831,2.50833133 L138.319161,2.50833133 L138.319161,18.0234699 C138.319161,21.4904153 139.3792,24.3056048 141.473181,26.3928348 C143.617491,28.4503269 146.35955,29.4936322 149.624171,29.4936322 C152.903083,29.4936322 155.632093,28.4503269 157.736637,26.3922153 C159.885297,24.2901163 160.929802,21.5529889 160.929802,18.0234699 L160.929802,2.50833133 L155.219511,2.50833133 L155.219511,18.4199754 Z" id="Fill-17" fill="#FFFFFF" mask="url(#mask-4)"></path>
        <polygon id="Fill-18" fill="#FFFFFF" mask="url(#mask-4)" points="189.625289 2.03333006 178.614183 16.1204291 167.602454 2.03333006 165.598571 2.03333006 165.598571 29.0180114 171.308862 29.0180114 171.308862 15.3398087 177.656668 23.3089509 179.571076 23.3089509 185.918882 15.3398087 185.918882 29.0180114 191.629173 29.0180114 191.629173 2.03333006"></polygon>
        <path d="M15.6224,6.88618635 C14.0124583,6.88618635 12.4236427,7.30747351 10.9920311,8.13146162 C8.84337087,9.36868286 7.30612816,11.3660796 6.66364272,13.7562647 C6.02115728,16.1458302 6.35109903,18.6419566 7.5919534,20.7849452 C8.83280777,22.9279338 10.8360699,24.4600561 13.2326524,25.1000408 C15.629235,25.7425037 18.1333126,25.412289 20.2819728,24.1750677 C22.4312544,22.9378465 23.9684971,20.9410693 24.6103612,18.5502647 C25.2528466,16.1606991 24.9229049,13.6645728 23.6826718,11.5215841 C22.4418175,9.3785955 20.4385553,7.84647325 18.0419728,7.2064885 C17.2410408,6.99212768 16.4289243,6.88618635 15.6224,6.88618635 M15.662167,31.7446066 C14.3044971,31.7446066 12.9381282,31.5667987 11.5916427,31.206846 C7.55902136,30.1300856 4.18814757,27.5509408 2.10100194,23.9452184 C0.0132349515,20.3407351 -0.541017476,16.1408739 0.539526214,12.1194402 C1.6200699,8.098626 4.20616699,4.73762187 7.82185631,2.65658723 C11.4375456,0.575552598 15.6503612,0.0223034376 19.6823612,1.09968338 C23.7156039,2.17644378 27.0858563,4.75620806 29.1736233,8.36131093 C31.2607689,11.9657943 31.8156427,16.166275 30.735099,20.1870892 C29.6545553,24.2079033 27.0678369,27.5689075 23.4521476,29.6499421 C21.0443806,31.0358529 18.3706718,31.7446066 15.662167,31.7446066" id="Fill-19" fill="#FFFFFF" mask="url(#mask-4)"></path>
        <polygon id="Fill-20" fill="#FF5204" mask="url(#mask-4)" points="20.2832777 24.1769883 32.2941515 31.0910539 20.2832777 38.0051196"></polygon>
        <path d="M127.244551,34.7348161 L123.092629,44.4473436 L124.283153,44.4473436 L125.110804,42.5081836 L129.785289,42.5081836 L130.612318,44.4473436 L131.817134,44.4473436 L127.665833,34.7348161 L127.244551,34.7348161 Z M127.447736,36.804699 L129.364008,41.4946163 L125.530843,41.4946163 L127.447736,36.804699 Z" id="Fill-1" fill="#FFFFFF" mask="url(#mask-4)"></path>
    </g>
</svg>
