
<svg width="205px" height="205px" viewBox="180 91 205 205" version="1.1" xmlns="http://www.w3.org/2000/svg" xmlns:xlink="http://www.w3.org/1999/xlink">
    <!-- Generator: Sketch 3.8.3 (29802) - http://www.bohemiancoding.com/sketch -->
    <desc>Created with Sketch.</desc>
    <defs></defs>
    <g id="Page-1" stroke="none" stroke-width="1" fill="none" fill-rule="evenodd" transform="translate(180.000000, 91.000000)">
        <polygon id="Fill-1" fill="#315584" points="0 103.526931 37.6375543 125.257303 37.6375543 81.7965598"></polygon>
        <polygon id="Fill-2" fill="#315584" points="30.8122056 175.548742 42.0604665 133.569421 72.7915263 164.300481"></polygon>
        <polygon id="Fill-3" fill="#315584" points="81.7966712 167.050749 103.527043 204.688303 125.257043 167.050749"></polygon>
        <polygon id="Fill-4" fill="#315584" points="167.050712 122.891744 204.688266 101.161372 167.050712 79.4313723"></polygon>
        <polygon id="Fill-5" fill="#315584" points="173.876209 29.139673 162.627948 71.1189937 131.896889 40.3879339"></polygon>
        <polygon id="Fill-6" fill="#315584" points="101.161484 3.71376814e-05 79.4311123 37.6375915 122.891855 37.6375915"></polygon>
        <polygon id="Fill-7" fill="#315584" points="29.139673 30.8122056 71.1189937 42.0604665 40.3879339 72.7915263"></polygon>
        <g id="Group-12" transform="translate(63.876812, 63.936603)">
            <path d="M76.6244321,38.4076042 C76.6244321,59.48101 59.5410987,76.5647147 38.4673216,76.5647147 C17.3939158,76.5647147 0.310211051,59.48101 0.310211051,38.4076042 C0.310211051,17.3341984 17.3939158,0.250493659 38.4673216,0.250493659 C59.5410987,0.250493659 76.6244321,17.3341984 76.6244321,38.4076042 L76.6244321,38.4076042 Z" id="Stroke-8" stroke="#FFFFFF" stroke-width="16.05"></path>
            <polygon id="Fill-10" fill="#FF5204" points="55.6346975 61.3204393 97.6140181 72.5687002 66.8829583 103.29976"></polygon>
        </g>
    </g>
</svg>
