
<svg width="116px" height="84px" viewBox="180 943 116 84" version="1.1" xmlns="http://www.w3.org/2000/svg" xmlns:xlink="http://www.w3.org/1999/xlink">
    <!-- Generator: Sketch 39 (31667) - http://www.bohemiancoding.com/sketch -->
    <desc>Created with Sketch.</desc>
    <defs></defs>
    <g id="Group-3" stroke="none" stroke-width="1" fill="none" fill-rule="evenodd" transform="translate(186.000000, 943.000000)">
        <polygon id="Fill-10" fill="#FF5204" transform="translate(83.434669, 24.962079) rotate(-71.000000) translate(-83.434669, -24.962079) " points="64.5616132 5.97143409 102.307725 16.148432 74.6755956 43.9527242"></polygon>
        <polygon id="Fill-10-Copy" fill="#FF5204" transform="translate(24.989291, 24.962079) rotate(-71.000000) translate(-24.989291, -24.962079) " points="6.11623502 5.97143409 43.8623469 16.148432 16.2302175 43.9527242"></polygon>
        <path d="M102.605042,54.6566556 C102.605042,66.3991785 93.1448094,75.9185603 81.4747899,75.9185603 C69.8049761,75.9185603 60.3445378,66.3991785 60.3445378,54.6566556 C60.3445378,42.9141326 69.8049761,33.3947508 81.4747899,33.3947508 C93.1448094,33.3947508 102.605042,42.9141326 102.605042,54.6566556 L102.605042,54.6566556 Z" id="Stroke-8" stroke="#FF5204" stroke-width="14.445"></path>
        <path d="M23.0294118,75.9185603 C11.3595979,75.9185603 1.89915966,66.3991785 1.89915966,54.6566556 C1.89915966,42.9141326 11.3595979,33.3947508 23.0294118,33.3947508 C34.6994313,33.3947508 44.1596639,42.9141326 44.1596639,54.6566556 C44.1596639,66.3991785 34.6994313,75.9185603 23.0294118,75.9185603 Z" id="Stroke-8-Copy" stroke="#FF5204" stroke-width="14.445"></path>
    </g>
</svg>
