
<svg width="116px" height="84px" viewBox="1145 1176 116 84" version="1.1" xmlns="http://www.w3.org/2000/svg" xmlns:xlink="http://www.w3.org/1999/xlink">
    <!-- Generator: Sketch 39 (31667) - http://www.bohemiancoding.com/sketch -->
    <desc>Created with Sketch.</desc>
    <defs></defs>
    <g id="Group-5" stroke="none" stroke-width="1" fill="none" fill-rule="evenodd" transform="translate(1147.000000, 1183.000000)">
        <polygon id="Fill-10-Copy-2" fill="#FF5204" transform="translate(24.989291, 52.169463) rotate(-251.000000) translate(-24.989291, -52.169463) " points="6.11623502 33.1552996 43.8623469 43.3449007 16.2302175 71.1836254"></polygon>
        <polygon id="Fill-10-Copy-3" fill="#FF5204" transform="translate(83.434669, 52.169463) rotate(-251.000000) translate(-83.434669, -52.169463) " points="64.5616132 33.1552996 102.307725 43.3449007 74.6755956 71.1836254"></polygon>
        <path d="M47.7563025,22.1125771 C47.7563025,33.8696419 38.2960699,43.4008124 26.6260504,43.4008124 C14.9562366,43.4008124 5.49579832,33.8696419 5.49579832,22.1125771 C5.49579832,10.3555123 14.9562366,0.824341818 26.6260504,0.824341818 C38.2960699,0.824341818 47.7563025,10.3555123 47.7563025,22.1125771 L47.7563025,22.1125771 Z" id="Stroke-8-Copy-2" stroke="#FF5204" stroke-width="14.445" transform="translate(26.626050, 22.112577) rotate(-180.000000) translate(-26.626050, -22.112577) "></path>
        <path d="M106.201681,22.1125771 C106.201681,33.8696419 96.7414481,43.4008124 85.0714286,43.4008124 C73.4016147,43.4008124 63.9411765,33.8696419 63.9411765,22.1125771 C63.9411765,10.3555123 73.4016147,0.824341818 85.0714286,0.824341818 C96.7414481,0.824341818 106.201681,10.3555123 106.201681,22.1125771 L106.201681,22.1125771 Z" id="Stroke-8-Copy-3" stroke="#FF5204" stroke-width="14.445" transform="translate(85.071429, 22.112577) rotate(-180.000000) translate(-85.071429, -22.112577) "></path>
    </g>
</svg>
