
<svg width="325px" height="327px" viewBox="19 133 325 327" version="1.1" xmlns="http://www.w3.org/2000/svg" xmlns:xlink="http://www.w3.org/1999/xlink">
    <!-- Generator: Sketch 3.8.3 (29802) - http://www.bohemiancoding.com/sketch -->
    <desc>Created with Sketch.</desc>
    <defs></defs>
    <g id="Group-7" stroke="none" stroke-width="1" fill="none" fill-rule="evenodd" transform="translate(180.500000, 296.500000) rotate(-90.000000) translate(-180.500000, -296.500000) translate(22.000000, 140.000000)">
        <path d="M137.751262,27.7070832 C137.751262,38.4314494 129.057177,47.1257347 118.333058,47.1257347 C107.608939,47.1257347 98.9156542,38.4314494 98.9156542,27.7070832 C98.9156542,16.9827171 107.608939,8.2884317 118.333058,8.2884317 C129.057177,8.2884317 137.751262,16.9827171 137.751262,27.7070832 L137.751262,27.7070832 Z" id="Stroke-1" stroke="#FFFFFF" stroke-width="9.6" transform="translate(118.333458, 27.707083) rotate(-270.000000) translate(-118.333458, -27.707083) "></path>
        <polygon id="Stroke-3" stroke="#FFFFFF" stroke-width="7.8704" transform="translate(98.757428, 96.487695) rotate(-270.000000) translate(-98.757428, -96.487695) " points="84.6828716 89.5156964 112.831983 82.5593075 104.78149 110.416083"></polygon>
        <path d="M207.103526,82.9203897 C217.669149,84.7559478 224.747051,94.8094907 222.910735,105.376157 C221.075219,115.942024 211.021908,123.019289 200.456285,121.183731 C189.889861,119.348173 182.812759,109.29463 184.648275,98.727963 C186.483791,88.1620968 196.537903,81.0848317 207.103526,82.9203897 L207.103526,82.9203897 Z" id="Stroke-5" stroke="#FFFFFF" stroke-width="9.6" transform="translate(203.779608, 102.052060) rotate(-270.000000) translate(-203.779608, -102.052060) "></path>
        <path d="M290.066348,1.64914472 C300.631971,3.4847028 307.709874,13.5382457 305.873557,24.1049124 C304.038042,34.6707786 293.98473,41.7480437 283.419107,39.9124856 C272.852684,38.0769275 265.775582,28.0233846 267.611098,17.456718 C269.446613,6.89085179 279.500725,-0.186413359 290.066348,1.64914472 L290.066348,1.64914472 Z" id="Stroke-7" stroke="#FFFFFF" stroke-width="9.6" transform="translate(286.742430, 20.780815) rotate(-270.000000) translate(-286.742430, -20.780815) "></path>
        <path d="M220.04321,152.821523 C230.608832,154.657081 237.686735,164.710624 235.850419,175.277291 C234.014903,185.843157 223.961592,192.920422 213.395969,191.084864 C202.829545,189.249306 195.752443,179.195763 197.587959,168.629096 C199.423475,158.06323 209.477587,150.985965 220.04321,152.821523 L220.04321,152.821523 Z" id="Stroke-9" stroke="#FFFFFF" stroke-width="9.6" transform="translate(216.719291, 171.953193) rotate(-270.000000) translate(-216.719291, -171.953193) "></path>
        <path d="M300.902385,183.014837 C311.468008,184.850396 318.54591,194.903938 316.709594,205.470605 C314.874078,216.036471 304.820767,223.113736 294.255144,221.278178 C283.688721,219.44262 276.611618,209.389077 278.447134,198.822411 C280.28265,188.256544 290.336762,181.179279 300.902385,183.014837 L300.902385,183.014837 Z" id="Stroke-11" stroke="#FFFFFF" stroke-width="9.6" transform="translate(297.578467, 202.146508) rotate(-270.000000) translate(-297.578467, -202.146508) "></path>
        <path d="M22.7976444,11.5486026 C33.3632673,13.3841607 40.44117,23.4377036 38.6048537,34.0043703 C36.7693379,44.5702365 26.7160264,51.6475016 16.1504035,49.8119435 C5.58398019,47.9763855 -1.493122,37.9228425 0.342393812,27.3561759 C2.17790963,16.7903097 12.2320215,9.71304455 22.7976444,11.5486026 L22.7976444,11.5486026 Z" id="Stroke-13" stroke="#FF5204" stroke-width="9.6" transform="translate(19.473726, 30.680273) rotate(-270.000000) translate(-19.473726, -30.680273) "></path>
        <polygon id="Stroke-15" stroke="#FFFFFF" stroke-width="7.8704" transform="translate(286.742350, 111.463599) rotate(-270.000000) translate(-286.742350, -111.463599) " points="272.303172 124.618699 284.491382 98.3084993 301.181528 122.018658"></polygon>
        <polygon id="Stroke-17" stroke="#133C72" stroke-width="7.8704" transform="translate(237.662941, 298.982724) rotate(-270.000000) translate(-237.662941, -298.982724) " points="224.627417 284.5208 250.698465 297.211207 226.67346 313.444649"></polygon>
        <polygon id="Stroke-19" stroke="#FFFFFF" stroke-width="7.8704" transform="translate(184.136549, 244.848130) rotate(-270.000000) translate(-184.136549, -244.848130) " points="170.451029 230.603543 197.822068 240.171979 175.850312 259.092717"></polygon>
        <polygon id="Stroke-21" stroke="#FFFFFF" stroke-width="7.8704" transform="translate(184.648818, 14.021164) rotate(-270.000000) translate(-184.648818, -14.021164) " points="170.963298 -0.223423618 198.334337 9.34501325 176.36258 28.2657506"></polygon>
    </g>
</svg>
